<svg aria-hidden="true" xmlns="http://www.w3.org/2000/svg" xmlns:xlink="http://www.w3.org/1999/xlink"><symbol viewBox="0 0 25 45" id="facebook" xmlns="http://www.w3.org/2000/svg">
<path d="M23.9167 1.66666H17.6667C14.904 1.66666 12.2545 2.76412 10.301 4.71763C8.34747 6.67113 7.25 9.32065 7.25 12.0833V18.3333H1V26.6667H7.25V43.3333H15.5833V26.6667H21.8333L23.9167 18.3333H15.5833V12.0833C15.5833 11.5308 15.8028 11.0009 16.1935 10.6102C16.5842 10.2195 17.1141 9.99999 17.6667 9.99999H23.9167V1.66666Z" stroke-width="2" stroke-linecap="round" stroke-linejoin="round"/>
</symbol><symbol viewBox="0 0 43 45" id="github" xmlns="http://www.w3.org/2000/svg">
<path d="M30.0833 43.3613V37.3821C30.1615 36.3887 30.0273 35.39 29.6896 34.4525C29.352 33.515 28.8186 32.66 28.125 31.9446C34.6667 31.2154 41.5417 28.7362 41.5417 17.3612C41.5411 14.4526 40.4223 11.6554 38.4167 9.54875C39.3664 7.00397 39.2992 4.19114 38.2292 1.69458C38.2292 1.69458 35.7708 0.965416 30.0833 4.77792C25.3083 3.48379 20.275 3.48379 15.5 4.77792C9.81249 0.965416 7.35416 1.69458 7.35416 1.69458C6.28411 4.19114 6.21696 7.00397 7.16666 9.54875C5.14609 11.671 4.02608 14.4935 4.04166 17.4237C4.04166 28.7154 10.9167 31.1946 17.4583 32.0071C16.7729 32.7154 16.2443 33.56 15.9069 34.4861C15.5695 35.4121 15.4308 36.3989 15.5 37.3821V43.3613" stroke-width="2" stroke-linecap="round" stroke-linejoin="round"/>
<path d="M15.5 39.1946C9.24999 41.2217 4.04166 39.1946 0.916656 32.9446" stroke-width="1.5" stroke-linecap="round" stroke-linejoin="round"/>
</symbol><symbol viewBox="0 0 55 55" id="instagram" xmlns="http://www.w3.org/2000/svg">
<path d="M27.5 36.6667C29.9311 36.6667 32.2627 35.7009 33.9818 33.9818C35.7009 32.2627 36.6667 29.9312 36.6667 27.5C36.6667 25.0689 35.7009 22.7373 33.9818 21.0182C32.2627 19.2991 29.9311 18.3333 27.5 18.3333C25.0688 18.3333 22.7373 19.2991 21.0182 21.0182C19.2991 22.7373 18.3333 25.0689 18.3333 27.5C18.3333 29.9312 19.2991 32.2627 21.0182 33.9818C22.7373 35.7009 25.0688 36.6667 27.5 36.6667Z" stroke-width="1.5" stroke-linecap="round" stroke-linejoin="round"/>
<path d="M6.875 36.6667V18.3333C6.875 15.2944 8.08221 12.3799 10.2311 10.2311C12.3799 8.08221 15.2944 6.875 18.3333 6.875H36.6667C39.7056 6.875 42.6201 8.08221 44.7689 10.2311C46.9178 12.3799 48.125 15.2944 48.125 18.3333V36.6667C48.125 39.7056 46.9178 42.6201 44.7689 44.7689C42.6201 46.9178 39.7056 48.125 36.6667 48.125H18.3333C15.2944 48.125 12.3799 46.9178 10.2311 44.7689C8.08221 42.6201 6.875 39.7056 6.875 36.6667Z" stroke-width="1.5"/>
<path d="M40.1042 14.9188L40.1271 14.8936" stroke-width="1.5" stroke-linecap="round" stroke-linejoin="round"/>
</symbol><symbol viewBox="0 0 61 61" id="logo" xmlns="http://www.w3.org/2000/svg">
<path d="M20.35 49.7C16.8833 49.7 13.7333 48.8833 10.9 47.25C8.03333 45.6167 5.78333 43.4 4.15 40.6C2.48333 37.8333 1.65 34.8 1.65 31.5C1.65 28.1667 2.48333 25.1 4.15 22.3C5.78333 19.5333 8.03333 17.3333 10.9 15.7C13.7333 14.0667 16.8833 13.25 20.35 13.25H22.25C25.75 13.25 28.9333 14.0667 31.8 15.7C34.6667 17.3333 36.9167 19.5333 38.55 22.3C40.1833 25.1 41 28.1667 41 31.5C41 34.8333 40.1833 37.8833 38.55 40.65C36.9167 43.4167 34.6667 45.6167 31.8 47.25C28.9333 48.8833 25.75 49.7 22.25 49.7H20.35ZM19.95 22C16.8833 22 14.05 22.4167 11.45 23.25C8.85 24.1167 6.78333 25.2667 5.25 26.7C3.71667 28.1667 2.95 29.7667 2.95 31.5C2.95 33.2 3.71667 34.7667 5.25 36.2C6.78333 37.6667 8.85 38.8167 11.45 39.65C14.05 40.5167 16.8833 40.95 19.95 40.95H22.65C25.7167 40.95 28.5667 40.5167 31.2 39.65C33.8 38.8167 35.8667 37.6667 37.4 36.2C38.9333 34.7667 39.7 33.2 39.7 31.5C39.7 29.7667 38.9333 28.1667 37.4 26.7C35.8667 25.2667 33.8 24.1167 31.2 23.25C28.5667 22.4167 25.7167 22 22.65 22H19.95Z"/>
<path d="M47.8117 43.0126C48.5541 44.5399 49.3747 45.9497 50.2735 47.242C51.2113 48.5343 52.0906 49.3371 52.9112 49.6503C52.5985 49.0238 52.4422 48.3776 52.4422 47.7119C52.4422 46.4979 52.8525 45.4797 53.6732 44.6573C54.5328 43.835 55.5488 43.4238 56.7211 43.4238C57.8934 43.4238 58.8899 43.835 59.7105 44.6573C60.5702 45.4797 61 46.4587 61 47.5944C61 48.8084 60.5115 49.8462 59.5346 50.7077C58.5968 51.5692 57.4636 52 56.135 52C54.3765 52 52.9307 51.6867 51.7975 51.0601C50.6643 50.4336 49.7069 49.572 48.9254 48.4755C48.1438 47.3399 47.2646 45.7538 46.2877 43.7175L41.1296 33.0266L40 30.2566L47.0383 18.3628L44.4602 23.9381L47.8117 16.6903L46.6945 19.1062L40 30.2566L45.936 10H57.8934L42.3019 31.4993L47.8117 43.0126Z"/>
</symbol><symbol viewBox="0 0 45 45" id="mail" xmlns="http://www.w3.org/2000/svg">
<path d="M34.875 9C36.3668 9 37.7976 9.59263 38.8525 10.6475C39.9074 11.7024 40.5 13.1332 40.5 14.625V32.625C40.5 34.1168 39.9074 35.5476 38.8525 36.6025C37.7976 37.6574 36.3668 38.25 34.875 38.25H10.125C8.63316 38.25 7.20242 37.6574 6.14752 36.6025C5.09263 35.5476 4.5 34.1168 4.5 32.625V14.625C4.5 13.1332 5.09263 11.7024 6.14752 10.6475C7.20242 9.59263 8.63316 9 10.125 9H34.875ZM38.25 17.9122L23.0715 26.8447C22.928 26.929 22.7676 26.9804 22.6019 26.9952C22.4361 27.0099 22.2691 26.9878 22.113 26.9303L21.9285 26.8447L6.75 17.9167V32.625C6.75 33.5201 7.10558 34.3786 7.73851 35.0115C8.37145 35.6444 9.22989 36 10.125 36H34.875C35.7701 36 36.6285 35.6444 37.2615 35.0115C37.8944 34.3786 38.25 33.5201 38.25 32.625V17.9122ZM34.875 11.25H10.125C9.22989 11.25 8.37145 11.6056 7.73851 12.2385C7.10558 12.8714 6.75 13.7299 6.75 14.625V15.3045L22.5 24.57L38.25 15.3V14.625C38.25 13.7299 37.8944 12.8714 37.2615 12.2385C36.6285 11.6056 35.7701 11.25 34.875 11.25Z"/>
</symbol><symbol viewBox="0 0 45 45" id="phone" xmlns="http://www.w3.org/2000/svg">
<path d="M38.9514 28.1777L30.6475 24.4564C30.2712 24.2952 29.8607 24.2304 29.4531 24.2678C29.0455 24.3053 28.6537 24.4438 28.3131 24.6708C28.2785 24.693 28.2456 24.7177 28.2147 24.7447L23.8746 28.4361C23.8296 28.4606 23.7795 28.4744 23.7282 28.4762C23.677 28.478 23.626 28.4679 23.5793 28.4466C20.7897 27.1001 17.8998 24.2279 16.5481 21.4769C16.5256 21.4309 16.5139 21.3804 16.5139 21.3292C16.5139 21.2781 16.5256 21.2276 16.5481 21.1816L20.2518 16.7871C20.2784 16.7545 20.303 16.7205 20.3256 16.6851C20.5495 16.3432 20.6848 15.9509 20.7192 15.5437C20.7535 15.1365 20.6859 14.7271 20.5225 14.3525L16.8276 6.06264C16.6177 5.57328 16.2548 5.16518 15.7934 4.89958C15.3319 4.63398 14.7967 4.52521 14.2682 4.5896C11.9711 4.89158 9.8626 6.01964 8.33666 7.76298C6.81072 9.50631 5.97177 11.7456 5.97658 14.0624C5.97658 27.8261 17.1738 39.0234 30.9375 39.0234C33.2542 39.0278 35.4934 38.1887 37.2366 36.6629C38.9799 35.137 40.108 33.0287 40.4104 30.7318C40.4746 30.2057 40.3673 29.673 40.1045 29.2128C39.8416 28.7526 39.4372 28.3895 38.9514 28.1777ZM30.9375 36.914C18.3375 36.914 8.08596 26.6624 8.08596 14.0624C8.08008 12.2588 8.73108 10.5147 9.91733 9.15606C11.1036 7.79739 12.7439 6.91709 14.5319 6.67964H14.5723C14.6431 6.68096 14.7119 6.70365 14.7696 6.74474C14.8273 6.78583 14.8713 6.84341 14.8957 6.90991L18.6047 15.191C18.6259 15.237 18.6368 15.2871 18.6368 15.3377C18.6368 15.3884 18.6259 15.4385 18.6047 15.4845L14.894 19.8896C14.8663 19.921 14.841 19.9545 14.8184 19.9898C14.5862 20.3443 14.4495 20.7527 14.4214 21.1755C14.3934 21.5983 14.475 22.0212 14.6584 22.4033C16.2176 25.5955 19.4344 28.7876 22.6617 30.3468C23.046 30.5292 23.471 30.6089 23.8952 30.5781C24.3194 30.5472 24.7284 30.407 25.0822 30.171C25.1156 30.1482 25.149 30.1236 25.1807 30.0972L29.519 26.4058C29.5618 26.3828 29.6091 26.3693 29.6577 26.3663C29.7062 26.3632 29.7548 26.3707 29.8002 26.3882L38.1059 30.1095C38.1737 30.1384 38.2308 30.1879 38.2689 30.251C38.3071 30.3141 38.3245 30.3876 38.3186 30.4611C38.0824 32.2499 37.2029 33.8914 35.8445 35.079C34.4861 36.2665 32.7418 36.9189 30.9375 36.914Z"/>
</symbol><symbol viewBox="0 0 56 55" id="telegram" xmlns="http://www.w3.org/2000/svg">
<path d="M51.2481 6.27772C51.0999 6.14961 50.9194 6.06448 50.7263 6.03153C50.5332 5.99859 50.3347 6.01909 50.1524 6.09081L6.61216 23.1301C6.16831 23.3024 5.79248 23.6143 5.54133 24.0187C5.29018 24.4232 5.17731 24.8984 5.21974 25.3726C5.26216 25.8469 5.45759 26.2945 5.77656 26.6479C6.09553 27.0014 6.52075 27.2417 6.98814 27.3324L18.9635 29.6828V42.9687C18.9635 43.4827 19.117 43.985 19.4045 44.4111C19.692 44.8372 20.1003 45.1676 20.577 45.36C20.8838 45.483 21.2111 45.5464 21.5417 45.5469C21.8876 45.5461 22.2298 45.4757 22.548 45.3398C22.8662 45.204 23.1538 45.0055 23.3936 44.7562L29.4092 38.5258L38.6475 46.6275C39.1158 47.0406 39.7182 47.2696 40.3426 47.2721C40.6154 47.271 40.8863 47.2282 41.1461 47.1453C41.5715 47.0107 41.954 46.7668 42.2556 46.438C42.5572 46.1093 42.7673 45.7072 42.8649 45.2719L51.5919 7.33046C51.6356 7.14031 51.6266 6.94185 51.5661 6.75638C51.5055 6.57091 51.3956 6.40544 51.2481 6.27772ZM6.93228 25.2183C6.91968 25.1144 6.94309 25.0093 6.99861 24.9206C7.05413 24.8318 7.1384 24.7648 7.23736 24.7307L44.7598 10.0461L19.6231 28.0607L7.32115 25.6459C7.21688 25.6306 7.12113 25.5797 7.05022 25.5017C6.97931 25.4237 6.93763 25.3236 6.93228 25.2183ZM22.1583 43.5617C22.0394 43.6841 21.8869 43.7684 21.72 43.8038C21.5532 43.8392 21.3796 43.8241 21.2213 43.7606C21.063 43.697 20.9272 43.5877 20.8312 43.4467C20.7352 43.3057 20.6834 43.1393 20.6823 42.9687V30.873L28.1116 37.3828L22.1583 43.5617ZM41.1891 44.8808C41.1559 45.0267 41.0851 45.1614 40.9839 45.2716C40.8826 45.3817 40.7543 45.4635 40.6117 45.5089C40.4691 45.5543 40.3172 45.5616 40.1709 45.5302C40.0246 45.4988 39.889 45.4297 39.7776 45.3299L21.2044 29.0426L49.4993 8.76562L41.1891 44.8808Z"/>
</symbol></svg>